<svg width="500" height="500" viewBox="0 0 500 500" fill="none" xmlns="http://www.w3.org/2000/svg">
<rect width="500" height="500" rx="99" fill="url(#paint0_linear_110_641)"/>
<path fill-rule="evenodd" clip-rule="evenodd" d="M238.661 114.504C233.215 115.585 227.685 120.032 225.289 125.255C224.388 127.22 224.122 128.846 224.118 132.427C224.114 136.571 224.3 137.439 225.896 140.691C227.945 144.866 230.697 147.489 234.978 149.348L237.908 150.62L237.918 157.444L237.927 164.268L232.419 165.808C211.428 171.675 192.99 183.433 178.691 200.071L175.421 203.875L154.681 204.147L133.941 204.419L132.451 205.913C130.236 208.137 130.349 211.316 132.72 213.441L134.476 215.015H150.99C160.072 215.015 167.504 215.161 167.504 215.339C167.504 215.517 166.434 217.657 165.126 220.094C163.819 222.531 161.698 227.154 160.413 230.367L158.077 236.209H127.814C108.094 236.209 97.1879 236.404 96.5091 236.768C93.5871 238.337 93.1884 243.347 95.8195 245.424C97.1971 246.51 97.8423 246.534 126.196 246.534H155.165L154.778 248.572C153.83 253.574 152.895 260.596 152.88 262.836C152.87 264.181 152.715 265.832 152.536 266.504L152.209 267.727H139.488H126.767L124.925 269.575C122.426 272.081 122.426 274.241 124.925 276.748L126.767 278.595H139.744H152.721L153.078 282.807C153.275 285.123 153.992 289.778 154.673 293.15C155.354 296.523 155.797 299.396 155.658 299.536C155.519 299.675 147.19 299.789 137.15 299.789C119.587 299.789 118.842 299.831 117.488 300.899C114.857 302.975 115.256 307.986 118.178 309.554C118.839 309.91 126.577 310.114 139.343 310.114H159.465L160.355 312.423C162.234 317.298 166.969 326.359 170.223 331.307C189.37 360.423 219.776 378.253 254.527 380.744C275.771 382.267 298.498 376.936 317.022 366.083C322.603 362.814 323.518 361.791 323.518 358.823C323.518 356.786 323.253 356.178 321.851 354.994C319.375 352.904 317.651 353.178 311.905 356.57C287.216 371.146 257.537 374.174 230.107 364.916C188.691 350.937 161.524 311.277 163.347 267.455C165.263 221.366 197.885 183.341 243.369 174.179C248.725 173.1 251.242 172.927 261.762 172.914C272.491 172.902 274.697 173.054 280.181 174.184C319.682 182.325 349.201 211.132 357.897 250.027C363.357 274.449 358.954 301.841 346.273 322.341C343.232 327.257 343.069 329.625 345.614 331.906C349.055 334.991 352.138 333.683 355.669 327.642C385.32 276.907 370.773 212.58 322.296 180.067C312.905 173.769 300.779 168.258 290.338 165.545L285.598 164.313V157.431V150.548L288.442 149.362C293.667 147.18 297.403 142.7 298.901 136.817C300.032 132.377 299.597 128.615 297.458 124.321C294.792 118.968 290.328 115.657 284.262 114.532C280.526 113.839 242.128 113.816 238.661 114.504ZM284.17 125.557C287.464 126.938 289.469 130.945 288.602 134.413C288.401 135.217 287.305 136.808 286.168 137.949L284.1 140.023L261.962 140.021C240.959 140.02 239.734 139.965 238.089 138.958C233.179 135.955 233.71 128.436 239.021 125.76C240.718 124.904 242.982 124.809 261.644 124.809C278.044 124.808 282.757 124.964 284.17 125.557ZM274.763 156.462V162.032H261.762H248.761V156.462V150.892H261.762H274.763V156.462ZM251.741 187.635C214.69 193.061 187.054 218.871 179.363 255.228C177.757 262.82 177.608 278.349 179.066 286.203C181.126 297.301 185.88 308.873 192.472 318.834C197.109 325.841 207.7 336.406 214.91 341.219C243.729 360.455 279.877 360.377 308.948 341.018C315.788 336.464 326.501 325.711 331.052 318.834C337.644 308.873 342.399 297.301 344.458 286.203C345.916 278.349 345.768 262.82 344.162 255.228C338.513 228.527 322.286 207.455 298.328 195.711C291.5 192.364 287.649 191.002 279.639 189.1C274.852 187.963 272.321 187.722 263.658 187.573C257.997 187.476 252.634 187.504 251.741 187.635ZM274.262 199.043C289.008 201.566 302.646 208.675 313.225 219.355C323.833 230.063 330.424 242.218 333.626 256.985C335.008 263.354 335.016 279.191 333.642 285.66C328.013 312.151 309.147 333.288 283.973 341.307C275.591 343.977 271.259 344.611 261.491 344.599C246.273 344.58 234.253 340.986 221.608 332.674C205.434 322.044 194.019 305.128 189.883 285.66C188.508 279.191 188.517 263.354 189.898 256.985C196.411 226.955 219.426 204.408 249.032 199.051C255.052 197.962 267.918 197.958 274.262 199.043ZM259.218 208.601C257.191 209.583 256.203 212.496 256.444 216.777C256.64 220.247 256.81 220.713 258.406 222.143C260.336 223.873 262.128 224.11 264.392 222.936C266.424 221.882 267.179 219.956 267.179 215.83C267.179 213.916 266.888 211.708 266.532 210.924C265.385 208.399 261.912 207.296 259.218 208.601ZM283.183 242.125L269.075 256.194L267.179 255.481C264.635 254.524 259.149 254.508 256.489 255.449L254.329 256.214L248.431 250.249C242.436 244.188 240.505 242.73 238.469 242.73C235.262 242.73 232.557 246.061 233.292 249.105C233.512 250.014 236.256 253.233 240.225 257.239C246.58 263.653 246.772 263.914 246.138 265.311C244.951 267.923 244.764 272.718 245.719 276.016C247.436 281.938 251.891 286.09 258.208 287.653C261.494 288.467 262.038 288.466 265.419 287.636C271.658 286.106 276.085 281.952 277.805 276.016C278.76 272.72 278.573 267.924 277.389 265.314C276.749 263.907 277.048 263.559 290.917 249.611C304.25 236.201 305.1 235.228 305.1 233.374C305.1 232.045 304.642 230.856 303.697 229.73C302.504 228.307 301.921 228.057 299.793 228.057H297.292L283.183 242.125ZM265.948 267.47C267.72 269.247 267.838 269.573 267.572 271.935C267.363 273.796 266.899 274.818 265.853 275.721C261.865 279.162 256.535 277.124 255.952 271.935C255.687 269.573 255.805 269.247 257.576 267.47C259.156 265.885 259.881 265.553 261.762 265.553C263.644 265.553 264.368 265.885 265.948 267.47ZM200.275 267.409C198.567 269.122 198.096 271.158 198.937 273.193C200.044 275.875 201.34 276.422 206.58 276.422C211.17 276.422 211.321 276.381 212.689 274.75C214.651 272.411 214.583 269.767 212.508 267.685C211.002 266.175 210.694 266.097 206.253 266.097C202.038 266.097 201.455 266.225 200.275 267.409ZM312.335 266.636C309.335 267.85 308.441 272.473 310.729 274.948C312.248 276.593 314.834 277.191 318.943 276.849C322.297 276.571 324.327 275.109 324.881 272.575C325.32 270.574 323.878 267.523 322.112 266.716C320.544 265.998 314.04 265.946 312.335 266.636ZM95.8195 300.899C93.9847 302.347 93.4609 305.104 94.6007 307.315C95.6337 309.319 96.9533 310.114 99.2475 310.114C101.542 310.114 102.861 309.319 103.894 307.315C105.742 303.73 103.309 299.789 99.2475 299.789C98.033 299.789 96.6657 300.232 95.8195 300.899ZM257.929 320.94C256.444 322.429 256.345 322.799 256.345 326.845C256.345 330.333 256.552 331.425 257.425 332.538C259.762 335.518 264.214 335.364 266.114 332.238C267.435 330.064 267.572 324.407 266.361 322.058C264.709 318.854 260.558 318.303 257.929 320.94ZM331.602 341.59C330.43 342.766 330.019 343.694 330.019 345.164C330.019 349.066 334.66 351.654 338.226 349.74C340.001 348.786 341.023 345.7 340.296 343.489C339.048 339.695 334.485 338.698 331.602 341.59Z" fill="white"/>
<defs>
<linearGradient id="paint0_linear_110_641" x1="-138.5" y1="-236" x2="541" y2="831.5" gradientUnits="userSpaceOnUse">
<stop stop-color="#C0D7E9"/>
<stop offset="1" stop-color="#48576F"/>
</linearGradient>
</defs>
</svg>
